<?xml version="1.0" encoding="utf-8"?>
<!-- Generator: Adobe Illustrator 17.1.0, SVG Export Plug-In . SVG Version: 6.00 Build 0)  -->
<!DOCTYPE svg PUBLIC "-//W3C//DTD SVG 1.1//EN" "http://www.w3.org/Graphics/SVG/1.1/DTD/svg11.dtd">
<svg version="1.1" id="Layer_1" xmlns="http://www.w3.org/2000/svg" xmlns:xlink="http://www.w3.org/1999/xlink" x="0px" y="0px"
	 viewBox="0 0 512 512" enable-background="new 0 0 512 512" xml:space="preserve">
<g>
	<path fill="none" stroke="#000000" stroke-width="18" stroke-miterlimit="10" d="M57.5,201.3c-0.1,0-2.4-0.3-2.4-1
		c-1.4-9.8-3.9-19.8-3.4-29.6c0.4-9.1,10.3-15.9,19.6-16.3c9.7-0.4,20.2,5.7,21.1,15.4c1.7,16.8,12.9,24,26.2,29
		c29.2,10.9,58.6,21.3,88,31.4c62.1,21.4,124.3,42.5,186.5,63.5c8.4,2.8,17.2,4.6,25.8,6.7c10.5,2.5,19.4,1.6,28-7
		c11.6-11.7,30.3-6.4,34.6,9.1c1.4,4.9,1.4,12.2-1.3,15.9c-8.8,12.1-18.8,23.6-33.2,30.3c3.4-0.9,6.8-1.7,11.5-2.9
		c1.3,8,3.4,16.1,3.6,24.2c0.3,10.1-8.1,18.7-17.8,20.2c-10.1,1.6-19.7-3.8-23.5-13.4c-0.7-1.8-1.6-3.7-1.6-5.6
		c-0.3-13.1-7.8-21.5-19-26.1c-21.6-8.9-43.3-17.5-65.3-25.2c-69.1-24-138.4-47.5-207.7-71c-8.9-3-18.2-5.4-27.4-7.1
		c-12-2.3-23-2.5-32.5,8.7c-8.7,10.4-22.5,9.4-31.1,0.4c-8.6-9-8.1-21.9,1.4-31.3C44.1,213.4,50.9,207.4,57.5,201.3z"/>
	<path fill="none" stroke="#000000" stroke-width="18" stroke-miterlimit="10" d="M266.9,243.5c19.5-6.9,37-12.8,54.5-19.2
		c25.1-9.2,50-18.6,75-28c3.6-1.4,6.9-3.6,10.3-5.5c6.7-3.7,11-8.5,11.4-17c0.5-10,5.9-17.4,15.8-20.3c8.2-2.5,16.3-0.7,21.1,6.1
		c3.5,5,5.6,12.1,5.8,18.2c0.2,8.8-2,17.6-3,24.9c7.6,7,15.2,12.8,21.1,19.9c6,7.3,4.5,18.4-1.7,25.5c-6.4,7.3-17.2,9.5-25.9,5.1
		c-1.5-0.7-3.2-1.4-4.2-2.7c-12-14.8-27.7-12.7-42.9-8.2c-22.4,6.6-44.3,14.8-66.5,21.9c-3.9,1.2-8.8,1.3-12.6,0
		C306.3,258,287.6,251,266.9,243.5z"/>
	<path fill="none" stroke="#000000" stroke-width="18" stroke-miterlimit="10" d="M55.3,342.2c-6.1-5.2-12.2-10.1-17.8-15.5
		c-8.6-8.2-9.3-20.8-2.2-29.5c7.4-9.1,21.3-11.7,29.7-3.1c10.7,10.9,22.4,10.2,34.6,6.5c23.9-7.3,47.7-15.3,71.3-23.5
		c6.5-2.3,12-2.2,18.4,0.2C207,284,224.9,290,245,297.1c-15,5.4-27.9,10-40.8,14.5c-23.3,8.3-46.7,16.4-70,24.9
		c-7.3,2.7-14.1,6.5-21.2,9.8c-11,5.3-17.8,13-18.7,26.2c-0.9,13.3-12,21.2-24.3,19.5c-12.1-1.6-19.9-12.6-18.2-25.6
		C52.9,358.5,54.1,350.5,55.3,342.2z"/>
</g>
<g>
	<path fill="#FFFFFF" d="M57.5,201.3c-0.1,0-2.4-0.3-2.4-1c-1.4-9.8-3.9-19.8-3.4-29.6c0.4-9.1,10.3-15.9,19.6-16.3
		c9.7-0.4,20.2,5.7,21.1,15.4c1.7,16.8,12.9,24,26.2,29c29.2,10.9,58.6,21.3,88,31.4c62.1,21.4,124.3,42.5,186.5,63.5
		c8.4,2.8,17.2,4.6,25.8,6.7c10.5,2.5,19.4,1.6,28-7c11.6-11.7,30.3-6.4,34.6,9.1c1.4,4.9,1.4,12.2-1.3,15.9
		c-8.8,12.1-18.8,23.6-33.2,30.3c3.4-0.9,6.8-1.7,11.5-2.9c1.3,8,3.4,16.1,3.6,24.2c0.3,10.1-8.1,18.7-17.8,20.2
		c-10.1,1.6-19.7-3.8-23.5-13.4c-0.7-1.8-1.6-3.7-1.6-5.6c-0.3-13.1-7.8-21.5-19-26.1c-21.6-8.9-43.3-17.5-65.3-25.2
		c-69.1-24-138.4-47.5-207.7-71c-8.9-3-18.2-5.4-27.4-7.1c-12-2.3-23-2.5-32.5,8.7c-8.7,10.4-22.5,9.4-31.1,0.4
		c-8.6-9-8.1-21.9,1.4-31.3C44.1,213.4,50.9,207.4,57.5,201.3z"/>
	<path fill="#FFFFFF" d="M266.9,243.5c19.5-6.9,37-12.8,54.5-19.2c25.1-9.2,50-18.6,75-28c3.6-1.4,6.9-3.6,10.3-5.5
		c6.7-3.7,11-8.5,11.4-17c0.5-10,5.9-17.4,15.8-20.3c8.2-2.5,16.3-0.7,21.1,6.1c3.5,5,5.6,12.1,5.8,18.2c0.2,8.8-2,17.6-3,24.9
		c7.6,7,15.2,12.8,21.1,19.9c6,7.3,4.5,18.4-1.7,25.5c-6.4,7.3-17.2,9.5-25.9,5.1c-1.5-0.7-3.2-1.4-4.2-2.7
		c-12-14.8-27.7-12.7-42.9-8.2c-22.4,6.6-44.3,14.8-66.5,21.9c-3.9,1.2-8.8,1.3-12.6,0C306.3,258,287.6,251,266.9,243.5z"/>
	<path fill="#FFFFFF" d="M55.3,342.2c-6.1-5.2-12.2-10.1-17.8-15.5c-8.6-8.2-9.3-20.8-2.2-29.5c7.4-9.1,21.3-11.7,29.7-3.1
		c10.7,10.9,22.4,10.2,34.6,6.5c23.9-7.3,47.7-15.3,71.3-23.5c6.5-2.3,12-2.2,18.4,0.2C207,284,224.9,290,245,297.1
		c-15,5.4-27.9,10-40.8,14.5c-23.3,8.3-46.7,16.4-70,24.9c-7.3,2.7-14.1,6.5-21.2,9.8c-11,5.3-17.8,13-18.7,26.2
		c-0.9,13.3-12,21.2-24.3,19.5c-12.1-1.6-19.9-12.6-18.2-25.6C52.9,358.5,54.1,350.5,55.3,342.2z"/>
</g>
<g>
	<path d="M407.5,245.1c-1.9-12-7-21.4-19.1-25.8c-1.1-0.4-2-2.1-2.3-3.3c-5.9-20.6-15.7-39.1-30.2-54.9
		c-34-36.7-75.9-52.1-125.1-42.3c-51.2,10.2-84.6,42.4-102.1,91.2c-2.1,5.7-4.2,10.1-10.1,12.5c-3.8,1.5-7,4.2-8.4,8.5
		c-6.4,19.2-6,38.3,0.7,57.4c1.9,5.5,5.4,9.6,10.9,10.9c6,1.5,8.5,5.3,10.6,10.7c4,10.6,9.7,20.3,16.6,29.5c0.9,0.5,1.6,1.3,2.2,2.6
		c0.1,0.2,0.2,0.4,0.3,0.7c1.1,1.4,2.2,2.8,3.4,4.1c-0.2,0.3-0.5,0.6-0.7,1c7.1,12,18.7,22.1,31.1,27.6c3.8,1.7,7.6,3.2,11,5.6
		c3.2,2.2,6.3,4.8,10.3,5.2c4.3,0.5,8.8,1.1,12.8,2.7c2.8,1.1,5.1,2.6,8,2.9c0-0.2-0.1-0.4-0.1-0.6c47.7,9,88.6-3.1,123.3-36.1
		c0.1-0.4,0.3-0.9,0.6-1.3c2.1-3.1,4.4-6,7.7-8c0.3-0.4,0.6-0.7,0.9-1.1c9.4-11.4,16.9-23.9,22-37.7c1.4-3.6,3-5.8,6.9-6.7
		c7.4-1.8,12.2-6.4,14.9-13.8C408.4,273,409.8,259.3,407.5,245.1z M192.3,149c11.8-9.7,25.4-15.7,40.2-18.5
		c43.4-8.4,80.3,4.5,111.2,35.5c9.2,9.2,16.4,19.9,22,31.8c-33-22.9-68.7-38.1-109.9-38.8c0.4-2.7,0.5-5.2,1.2-7.6
		c0.2-0.7,1.9-1.6,2.9-1.5c8.2,0.7,16.5,1.3,24.7,2.6c7.1,1.2,14,3.3,21.3,5.1c-1-0.7-1.9-1.5-2.9-2.1
		c-12.4-7.8-26.1-11.7-40.5-13.4c-25.8-2.9-50.6,0.3-73.9,12.2c-0.2,0.1-0.5,0.1-1.2-0.3C189,152.4,190.5,150.5,192.3,149z
		 M347.4,340.5c-25.3,28.9-58,41.9-96.3,41.1c-10.1-0.2-20-1.3-29.6-4.8c-0.5-0.2-1-0.2-1.3-0.5c-0.5-0.5-0.9-1.2-1.3-1.9
		c0.7-0.2,1.5-0.7,2.1-0.6c5.1,0.8,10.1,2,15.3,2.7c7.2,0.9,14.4,0.9,21.4-1.6c4.9-1.8,8.6-4.8,10.1-10.4c-2.6,0.3-4.9,0.6-7.2,0.7
		c-13.8,0.4-27.2-1.9-40.1-6.8c-15.7-6-30.5-13.8-45.1-22.2c-12.7-7.3-20.7-18.2-25-32.2c-8.2-26.8-10.3-53.9-6.3-81.6
		c0.9-6.1,3.8-11.1,8.6-15.1c20.9-17.7,45.2-27.9,71.6-34.2c31.2-7.4,61.2-2.8,90.6,8.3c15.8,5.9,30.6,13.5,44.8,22.6
		c9.7,6.2,15.3,14.2,17.2,25.7C383.9,271.2,375.4,308.7,347.4,340.5z M400.1,283.6c-0.5,1.4-1.5,2.6-2.3,3.9
		c-0.1-0.2-0.3-0.3-0.4-0.5c0-3.7,0-7.4,0-11.1c-0.1-4.1-1.1-7.9-4.1-10.9c-0.5-0.5-0.9-1.5-0.9-2.3c0-11.9,0-23.8-2.7-35.5
		c0-0.1,0.1-0.3,0.2-0.5c6,1.9,10.1,5.7,11.6,12C405.1,253.8,405.2,268.8,400.1,283.6z"/>
	<path fill="#FFFFFF" d="M267.7,364.6c-2.6,0.3-4.9,0.6-7.2,0.7c-13.8,0.4-27.2-1.9-40.1-6.8c-15.7-6-30.5-13.8-45.1-22.2
		c-12.7-7.3-20.7-18.2-25-32.2c-8.2-26.8-10.3-53.9-6.3-81.6c0.9-6.1,3.8-11.1,8.6-15.1c20.9-17.7,45.2-27.9,71.6-34.2
		c31.2-7.4,61.2-2.8,90.6,8.3c15.8,5.9,30.6,13.5,44.8,22.6c9.7,6.2,15.3,14.2,17.2,25.7c6.9,41.5-1.6,79-29.5,110.8
		c-25.3,28.9-58,41.9-96.3,41.1c-10.1-0.2-20-1.3-29.6-4.8c-0.5-0.2-1-0.2-1.3-0.5c-0.5-0.5-0.9-1.2-1.3-1.9
		c0.7-0.2,1.5-0.7,2.1-0.6c5.1,0.8,10.1,2,15.3,2.7c7.2,0.9,14.4,0.9,21.4-1.6C262.6,373.2,266.3,370.2,267.7,364.6z M361.1,247.9
		c-0.2-3.3-0.8-8.7-0.8-14.2c-0.1-9.2-4.6-15.2-12.3-19.7c-15.7-9.1-31.9-16.7-49.2-22.3c-26.1-8.5-52.3-9.7-78.9-2
		c-18.7,5.4-36.2,13.3-53.1,22.7c-9.3,5.1-14.9,11.7-15.4,23.1c-1.1,23.9,0.6,47.4,8.3,70.1c2.5,7.4,6.5,14,13,18.6
		c14.8,10.5,30.6,19.1,47.5,25.6c22.9,8.8,45.8,9.2,68.9,0.7c16.6-6.2,32.2-14.4,47.1-24c8.3-5.3,13.5-12.7,16.6-21.9
		C358.7,286.8,360.6,268.6,361.1,247.9z"/>
	<path fill="#FFFFFF" d="M365.7,197.7c-33-22.9-68.7-38.1-109.9-38.8c0.4-2.7,0.5-5.2,1.2-7.6c0.2-0.7,1.9-1.6,2.9-1.5
		c8.2,0.7,16.5,1.3,24.7,2.6c7.1,1.2,14,3.3,21.3,5.1c-1-0.7-1.9-1.5-2.9-2.1c-12.4-7.8-26.1-11.7-40.5-13.4
		c-25.8-2.9-50.6,0.3-73.9,12.2c-0.2,0.1-0.5,0.1-1.2-0.3c1.6-1.7,3.1-3.6,4.9-5.1c11.8-9.7,25.4-15.7,40.2-18.5
		c43.4-8.4,80.3,4.5,111.2,35.5C352.9,175.1,360.1,185.9,365.7,197.7z"/>
	<path fill="#FFFFFF" d="M397.4,287c0-3.7,0-7.4,0-11.1c-0.1-4.1-1.1-7.9-4.1-10.9c-0.5-0.5-0.9-1.5-0.9-2.3c0-11.9,0-23.8-2.7-35.5
		c0-0.1,0.1-0.3,0.2-0.5c6,1.9,10.1,5.7,11.6,12c3.6,15.1,3.7,30.1-1.4,45c-0.5,1.4-1.5,2.6-2.3,3.9
		C397.6,287.4,397.5,287.2,397.4,287z"/>
	<path d="M361.1,247.9c-0.5,20.7-2.4,39-8.4,56.6c-3.1,9.2-8.3,16.6-16.6,21.9c-14.9,9.6-30.4,17.8-47.1,24
		c-23.1,8.6-45.9,8.1-68.9-0.7c-17-6.5-32.7-15.1-47.5-25.6c-6.5-4.7-10.5-11.2-13-18.6c-7.7-22.8-9.4-46.2-8.3-70.1
		c0.5-11.4,6.1-17.9,15.4-23.1c17-9.4,34.5-17.3,53.1-22.7c26.6-7.6,52.8-6.5,78.9,2c17.2,5.6,33.5,13.3,49.2,22.3
		c7.7,4.5,12.3,10.5,12.3,19.7C360.4,239.2,360.9,244.6,361.1,247.9z M255.8,216.2c-3.4-2.7-6.3-5.2-9.3-7.4
		c-4.8-3.4-10.1-5.6-16-5.9c-1.5-0.1-3,0.9-4.5,1.4c0.5,1.5,0.8,3.1,1.7,4.3c1,1.5,2.6,2.6,3.9,4c13,13.7,14.3,29.5,3.8,45.2
		c-3.9,5.9-5.1,12.2-2.4,19.2c0.9,2.2,0.7,5,0.4,7.4c-0.3,2.6-1.4,5.1-2.1,7.6c-1.4,4.7-3.3,9.2-4.3,14c-1.7,8.3,2.1,13.2,10.5,13.5
		c12.7,0.4,25.4,0.6,38,0.5c4.6,0,9.3-0.9,13.8-2c5.2-1.2,7.9-5,8.3-10.4c0.6-8.2-1.2-15.9-5.2-23c-1.2-2.2-2.6-4.4-3.7-6.6
		c-4.7-9.5-2.6-13.4,7.7-15.7c3.9-0.9,7.8-2,11.3-3.7c6.1-3,10.6-7.7,12.2-14.5c2.7-11.1-3.9-22-15.6-25.9
		c-11.4-3.8-24.5,1.1-28.7,11c-0.9,2.1-1.1,4.5-1.8,7.5c14.1-9.6,27.5-9.5,33.7-0.3c-7,11.5-21.7,14.6-32.6,6.9
		c-7.7-5.5-9.3-13.8-4.1-21.7c7.2-11,21-16.7,34.5-14c3.5,0.7,6.9,1.9,10.2,2.9c-2.3-4-8.3-7.6-16-8.8
		C282.6,198.9,267.5,202.4,255.8,216.2z M200.9,235.9c5.3-5.2,11.5-7.5,18.7-6.7c2.1,0.2,4.2,0.9,6.4,0.8c1.5,0,3-0.8,4.5-1.3
		c-0.5-1.4-0.7-3-1.6-4.1c-7.9-9.8-23-10.8-33.4-2.1c-5.9,5-8.3,11.5-7.2,19.1c1.4,9,6.8,14.8,15.2,17.6c8.8,2.8,17.2,2,24.2-4.7
		c3.1-2.9,5.1-6.5,5.8-11C219.4,250.1,207.8,247.4,200.9,235.9z M326.4,318.8c6.8-3.2,11.3-8.4,14.3-15c8.2-18.5,9.7-38,8.6-57.9
		c0-0.6-0.2-1.6-0.7-1.8c-3.4-1.8-6.8-3.4-10.6-5.2C339.4,266.6,336.1,293.1,326.4,318.8z M288.1,324.8c-18.5,2.2-36.8,2.3-55.1,0.2
		c1.4,7.8,13.4,15.3,25.3,16.1C271.4,342,284.8,334.9,288.1,324.8z M348.1,236.4c-0.5-9.3-3.9-13.3-13.7-16.6
		c0.8,3.4,1.6,6.8,2.5,10.2c0.2,0.6,0.8,1.1,1.3,1.4C341.4,233,344.6,234.6,348.1,236.4z M224.4,234.7c-0.2,2.8-0.4,5.5-0.6,8.2
		c1.8-0.9,3.8-2,6.6-3.4C227.9,237.6,226,236,224.4,234.7z M213.3,241.8c0.4-2.8,0.7-5.4,1.1-8.2c-2,1-4.1,2.2-6.8,3.6
		C210.1,239.2,211.8,240.6,213.3,241.8z M294.9,233.9c0,3,0,5.4,0,8.4c2-1.6,3.9-3.1,6.4-5C298.6,235.8,296.6,234.8,294.9,233.9z
		 M284,234.9c-1.5,1.3-3.2,2.8-5.5,4.8c2.9,1.4,5.1,2.4,6.9,3.2C284.9,240.3,284.5,237.8,284,234.9z"/>
	<path fill="#FFFFFF" d="M255.8,216.2c11.7-13.8,26.8-17.3,43.8-14.7c7.7,1.2,13.7,4.8,16,8.8c-3.4-1-6.7-2.2-10.2-2.9
		c-13.5-2.7-27.3,3-34.5,14c-5.2,7.9-3.6,16.2,4.1,21.7c10.8,7.7,25.6,4.6,32.6-6.9c-6.2-9.2-19.6-9.3-33.7,0.3
		c0.7-2.9,0.9-5.4,1.8-7.5c4.3-9.9,17.4-14.9,28.7-11c11.8,4,18.3,14.9,15.6,25.9c-1.7,6.8-6.2,11.5-12.2,14.5
		c-3.5,1.7-7.5,2.9-11.3,3.7c-10.3,2.3-12.4,6.3-7.7,15.7c1.1,2.3,2.5,4.4,3.7,6.6c4,7.2,5.8,14.8,5.2,23c-0.4,5.4-3.1,9.1-8.3,10.4
		c-4.5,1.1-9.2,1.9-13.8,2c-12.7,0.1-25.4-0.1-38-0.5c-8.4-0.3-12.2-5.2-10.5-13.5c1-4.7,2.8-9.3,4.3-14c0.8-2.5,1.8-5,2.1-7.6
		c0.3-2.4,0.5-5.2-0.4-7.4c-2.7-6.9-1.6-13.3,2.4-19.2c10.4-15.7,9.1-31.5-3.8-45.2c-1.3-1.3-2.8-2.5-3.9-4
		c-0.9-1.2-1.1-2.9-1.7-4.3c1.5-0.5,3-1.4,4.5-1.4c5.9,0.2,11.2,2.5,16,5.9C249.5,211,252.4,213.5,255.8,216.2z M244.3,265.9
		c-1.1,0.9-1.9,1.3-2.4,1.9c-3.7,4.6-1.9,10.4,3.5,12.7c3.2,1.3,6.1,3.2,9.2,4.7c0.8,0.4,2,0.1,2.9-0.3c2.6-1.2,5.1-2.7,7.6-4
		c1.4-0.8,3.1-1.3,4.3-2.3c2.3-1.8,2.7-4.4,2-7.2c-0.6-2.1-1.1-4.3-3.9-5c-0.2,0.8-0.5,1.4-0.5,2.1c-0.7,4.7-0.9,4.8-5.5,5.5
		c-1.9,0.3-3.7,1.6-5.3,2.4c-2.2-0.8-4.5-2.1-6.9-2.4c-2.8-0.4-4-1.6-4.4-4.2C244.8,268.7,244.6,267.6,244.3,265.9z"/>
	<path fill="#FFFFFF" d="M200.9,235.9c6.9,11.5,18.5,14.1,32.8,7.5c-0.7,4.4-2.8,8-5.8,11c-7,6.7-15.4,7.6-24.2,4.7
		c-8.5-2.7-13.9-8.6-15.2-17.6c-1.2-7.6,1.2-14.1,7.2-19.1c10.3-8.6,25.5-7.7,33.4,2.1c0.9,1.1,1.1,2.7,1.6,4.1
		c-1.5,0.5-3,1.3-4.5,1.3c-2.1,0-4.2-0.6-6.4-0.8C212.4,228.4,206.2,230.7,200.9,235.9z"/>
	<path fill="#FFFFFF" d="M326.4,318.8c9.7-25.6,13.1-52.1,11.7-79.9c3.7,1.8,7.2,3.5,10.6,5.2c0.4,0.2,0.6,1.2,0.7,1.8
		c1,19.9-0.4,39.4-8.6,57.9C337.7,310.3,333.2,315.6,326.4,318.8z"/>
	<path fill="#FFFFFF" d="M348.1,236.4c-3.5-1.8-6.8-3.4-9.9-5c-0.5-0.3-1.1-0.9-1.3-1.4c-0.9-3.4-1.7-6.7-2.5-10.2
		C344.2,223,347.6,227,348.1,236.4z"/>
	<path fill="#FFFFFF" d="M224.4,234.7c1.7,1.3,3.5,2.9,5.9,4.9c-2.7,1.4-4.8,2.5-6.6,3.4C224,240.1,224.2,237.5,224.4,234.7z"/>
	<path fill="#FFFFFF" d="M213.3,241.8c-1.5-1.2-3.3-2.7-5.7-4.6c2.7-1.4,4.8-2.6,6.8-3.6C214.1,236.5,213.7,239.1,213.3,241.8z"/>
	<path fill="#FFFFFF" d="M294.9,233.9c1.7,0.9,3.7,1.9,6.4,3.3c-2.5,2-4.4,3.5-6.4,5C294.9,239.3,294.9,236.9,294.9,233.9z"/>
	<path fill="#FFFFFF" d="M284,234.9c0.5,2.9,0.9,5.4,1.4,8c-1.8-0.8-4-1.9-6.9-3.2C280.8,237.7,282.5,236.2,284,234.9z"/>
	<path d="M244.3,265.9c0.3,1.7,0.5,2.8,0.6,3.9c0.4,2.5,1.6,3.8,4.4,4.2c2.4,0.3,4.8,1.6,6.9,2.4c1.6-0.7,3.4-2,5.3-2.4
		c4.5-0.8,4.8-0.8,5.5-5.5c0.1-0.6,0.3-1.2,0.5-2.1c2.8,0.7,3.3,2.9,3.9,5c0.7,2.7,0.3,5.3-2,7.2c-1.3,1-2.9,1.5-4.3,2.3
		c-2.5,1.3-5,2.8-7.6,4c-0.8,0.4-2.1,0.6-2.9,0.3c-3.1-1.4-6-3.4-9.2-4.7c-5.4-2.2-7.1-8-3.5-12.7
		C242.4,267.1,243.2,266.7,244.3,265.9z"/>
</g>
</svg>
